<?xml version="1.0" encoding="UTF-8"?>
<svg width="155px" height="24px" viewBox="0 0 155 24" version="1.1" xmlns="http://www.w3.org/2000/svg" xmlns:xlink="http://www.w3.org/1999/xlink">
    <!-- Generator: Sketch 55.2 (78181) - https://sketchapp.com -->
    <title>BitForex-Logo-Light</title>
    <desc>Created with Sketch.</desc>
    <defs>
        <linearGradient x1="19.3412758%" y1="30.7187169%" x2="153.769014%" y2="68.9880639%" id="linearGradient-1">
            <stop stop-color="#00FFC8" offset="0%"></stop>
            <stop stop-color="#00758C" offset="100%"></stop>
        </linearGradient>
        <linearGradient x1="0%" y1="0%" x2="100%" y2="0%" id="linearGradient-2">
            <stop stop-color="#00FFC8" offset="0%"></stop>
            <stop stop-color="#00959A" offset="100%"></stop>
        </linearGradient>
        <linearGradient x1="0%" y1="30.7187169%" x2="100%" y2="30.7187169%" id="linearGradient-3">
            <stop stop-color="#00FFC8" offset="0%"></stop>
            <stop stop-color="#00BBAB" offset="100%"></stop>
        </linearGradient>
    </defs>
    <g id="规范" stroke="none" stroke-width="1" fill="none" fill-rule="evenodd">
        <g id="Logo/2-A/BitForex-Logo-Light-Inside">
            <g id="BitForex-Logo-Light-Inside">
                <path d="M60.8318623,6.32756325 C60.8318623,8.40479361 60.0595053,10.8335553 57.385962,12.2716378 C58.6039095,13.10253 59.4059725,14.1571238 59.4059725,16.2663116 C59.4059725,20.8362184 56.3165446,23.8082557 52.2765236,23.8082557 L43.4241245,23.8082557 L47.6720878,1.05459387 L55.3362454,1.05459387 C59.2277363,1.05459387 60.8318623,3.5792277 60.8318623,6.32756325 Z M56.8512533,7.03062583 C56.8512533,5.97603196 56.4353688,4.79360852 54.6530066,4.79360852 L50.9100459,4.79360852 L49.8406285,10.3861518 L53.6132953,10.3861518 C55.9303661,10.3861518 56.8512533,8.50066578 56.8512533,7.03062583 Z M55.4550696,16.4580559 C55.4550696,15.1158455 54.7421247,14.1251664 53.2271168,14.1251664 L49.1573897,14.1251664 L48.0582663,20.069241 L52.1576994,20.069241 C54.207416,20.069241 55.4550696,18.5033289 55.4550696,16.4580559 Z M69.7436734,2.49267643 C69.7436734,3.86684421 68.7039621,4.98535286 67.4266025,4.98535286 C66.1492429,4.98535286 65.1095316,3.86684421 65.1095316,2.49267643 C65.1095316,1.11850866 66.1492429,0 67.4266025,0 C68.7039621,0 69.7436734,1.11850866 69.7436734,2.49267643 Z M68.4960199,7.15845539 L65.406592,23.8082557 L61.7230434,23.8082557 L64.8124713,7.15845539 L68.4960199,7.15845539 Z M79.1010751,7.60585885 L78.5366604,10.6737683 L75.9819412,10.6737683 L74.4669333,18.8548602 C74.4075212,19.1105193 74.4075212,19.3022636 74.4075212,19.4620506 C74.4075212,20.1331558 74.7936997,20.4846871 75.5957627,20.4846871 L76.9325344,20.4846871 L76.3087076,23.8082557 L74.4075212,23.8082557 C72.2686866,23.8082557 70.6645606,22.4660453 70.6645606,20.1970706 C70.6645606,19.6218375 70.7239726,19.1744341 70.7833847,18.8229028 L72.2983926,10.6737683 L70.7239726,10.6737683 L71.2883873,7.60585885 L72.8628073,7.60585885 L73.7836945,2.68442077 L77.4672431,2.68442077 L76.5463559,7.60585885 L79.1010751,7.60585885 Z M97.2514638,1.05459387 L96.568225,4.76165113 L87.2999414,4.76165113 L86.200818,10.7057257 L94.1323299,10.7057257 L93.4490911,14.412783 L85.4878731,14.412783 L83.7352169,23.8082557 L79.81402,23.8082557 L84.0619833,1.05459387 L97.2514638,1.05459387 Z M109.787411,12.4633822 C109.787411,13.4860186 109.609175,14.7003995 109.490351,15.4673768 C108.89623,18.8868176 108.094167,20.6764314 106.72769,22.0825566 C105.569154,23.2969374 103.905616,24 101.974724,24 C99.6279468,24 96.7167551,22.5299601 96.7167551,18.4713715 C96.7167551,17.448735 96.9246974,16.2343542 97.0435215,15.4673768 C97.6376423,12.0479361 98.4397053,10.2902796 99.806183,8.88415446 C100.964718,7.66977364 102.628257,6.96671105 104.559149,6.96671105 C106.905926,6.96671105 109.787411,8.40479361 109.787411,12.4633822 Z M106.133569,12.8788282 C106.133569,11.2809587 105.331506,10.5139814 104.202676,10.5139814 C103.460026,10.5139814 102.747081,10.8335553 102.271784,11.3448735 C101.529133,12.1118509 101.083543,13.3901465 100.697364,15.4673768 C100.43001,16.9693742 100.370598,17.7043941 100.370598,18.0878828 C100.370598,19.6857523 101.202367,20.4527297 102.331196,20.4527297 C103.073847,20.4527297 103.757086,20.1331558 104.232383,19.6218375 C104.975033,18.8548602 105.420624,17.5446072 105.806803,15.4673768 C106.074157,13.9653795 106.133569,13.2623169 106.133569,12.8788282 Z M124.967196,8.53262317 L121.78865,11.5685752 C121.521296,11.2170439 121.046,10.5459387 120.095406,10.5459387 C118.639811,10.5459387 117.332745,11.8242344 116.976272,13.7416778 L115.104792,23.8082557 L111.421244,23.8082557 L114.510671,7.15845539 L118.075396,7.15845539 L117.748629,8.78828229 C118.610105,7.66977364 120.0657,6.96671105 121.669826,6.96671105 C123.155128,6.96671105 124.135427,7.47802929 124.967196,8.53262317 Z M138.126971,12.9107856 C138.126971,14.0292943 137.919029,15.3715047 137.651674,16.6817577 L128.383391,16.6817577 C128.323979,17.1291611 128.264567,17.448735 128.264567,17.8641811 C128.264567,19.494008 129.096336,20.644474 130.908404,20.644474 C132.393706,20.644474 133.522535,20.0372836 134.591952,18.9507324 L136.522845,21.5712383 C134.918719,23.2010652 132.80959,24 130.492519,24 C127.78927,24 124.759254,22.5299601 124.759254,18.1517976 C124.759254,12.5592543 127.313973,6.96671105 132.631354,6.96671105 C135.928724,6.96671105 138.126971,9.29960053 138.126971,12.9107856 Z M134.621659,12.9107856 C134.621659,11.1850866 133.760183,10.2263648 132.423412,10.2263648 C130.848992,10.2263648 129.541926,11.3448735 128.858687,14.0292943 L134.53254,14.0292943 C134.591952,13.677763 134.621659,13.2623169 134.621659,12.9107856 Z M155,7.15845539 L148.761732,15.4354194 L152.415575,23.8082557 L148.167611,23.8082557 L146.236719,18.5992011 L142.642289,23.8082557 L138.097265,23.8082557 L144.662299,15.2117177 L141.156987,7.15845539 L145.40495,7.15845539 L147.217018,12.1118509 L150.514388,7.15845539 L155,7.15845539 Z" id="BitForex" fill="#000000" fill-rule="nonzero"></path>
                <g id="Group-9">
                    <g id="Group-11" transform="translate(0.000000, -0.000000)">
                        <path d="M24.7335661,14.1323917 C24.7335661,16.9436208 22.4426992,19.2304889 19.6272361,19.2304889 C16.8110912,19.2304889 14.5202242,16.9436208 14.5202242,14.1323917 L14.5202242,8.79670668 L24.7335661,8.79670668 L24.7335661,14.1323917 Z M29.452203,4.16663712 L29.452203,2.30926389e-14 L24.7335661,2.30926389e-14 L24.7335661,8.79670668 L14.5202242,8.79670668 L14.5202242,2.30926389e-14 L9.8015873,2.30926389e-14 L9.8015873,4.16663712 L9.8015873,8.79670668 L9.8015873,14.1323917 C9.8015873,19.5407486 14.2094219,23.940889 19.6272361,23.940889 C25.0448799,23.940889 29.452203,19.5407486 29.452203,14.1323917 L29.452203,8.79670668 L29.452203,4.16663712 Z" id="Fill-5-Copy-4" fill="url(#linearGradient-1)"></path>
                        <path d="M34.3769842,6.92779167e-14 C34.3769842,2.31426892 32.5044984,4.16663712 30.2059595,4.16663712 L29.275769,4.16663712 L24.557132,4.16663712 L14.3437902,4.16663712 L9.62515323,4.16663712 L8.90671063,4.16663712 C6.60527334,4.16663712 4.73278755,2.29741992 4.73278755,6.92779167e-14 L-2.06057393e-13,6.92779167e-14 C-2.06057393e-13,5.05452806 3.90506119,8.79670668 8.96552949,8.79670668 L9.62515323,8.79670668 L29.275769,8.79670668 L30.2649488,8.79670668 C35.328145,8.79670668 39.1355157,5.07052609 39.1355157,6.92779167e-14 L34.3769842,6.92779167e-14 Z" id="Fill-5-Copy" fill="url(#linearGradient-2)"></path>
                        <path d="M24.7335661,14.1323917 C24.7335661,16.9436208 22.4426992,19.2304889 19.6272361,19.2304889 C16.8110912,19.2304889 14.5202242,16.9436208 14.5202242,14.1323917 L14.5202242,8.79670668 L24.7335661,8.79670668 L24.7335661,14.1323917 Z M24.7335661,8.79670668 L14.5202242,8.79670668 L14.5202242,2.30926389e-14 L9.8015873,2.30926389e-14 L9.8015873,4.16663712 L9.8015873,8.79670668 L9.8015873,14.1323917 C9.8015873,19.5407486 14.2094219,23.940889 19.6272361,23.940889 C25.0448799,23.940889 29.452203,19.5407486 29.452203,14.1323917 L29.452203,8.79670668 L24.7335661,8.79670668 Z" id="Fill-5-Copy-4" fill="url(#linearGradient-3)"></path>
                    </g>
                </g>
            </g>
        </g>
    </g>
</svg>