<?xml version="1.0" encoding="utf-8"?>
<!-- Generator: Adobe Illustrator 25.2.3, SVG Export Plug-In . SVG Version: 6.00 Build 0)  -->
<svg version="1.1" id="Layer_1" xmlns="http://www.w3.org/2000/svg" xmlns:xlink="http://www.w3.org/1999/xlink" x="0px" y="0px"
	 viewBox="0 0 78.6 26.5" style="enable-background:new 0 0 78.6 26.5;" xml:space="preserve">
<style type="text/css">
	.st0{fill:url(#SVGID_1_);}
</style>
<linearGradient id="SVGID_1_" gradientUnits="userSpaceOnUse" x1="4.038156e-10" y1="13.2632" x2="78.5744" y2="13.2632">
	<stop  offset="0" style="stop-color:#6B5AA6"/>
	<stop  offset="1" style="stop-color:#75C69B"/>
</linearGradient>
<path class="st0" d="M75.2,26.5H3.4C1.5,26.5,0,25,0,23.1L0,3.4C0,1.5,1.5,0,3.4,0l71.8,0c1.9,0,3.4,1.5,3.4,3.4v19.7
	C78.6,25,77,26.5,75.2,26.5z"/>
<g>
	<g>
		<path d="M11,13.8c0-0.4-0.1-0.8-0.1-1.1c-0.1-0.9-0.4-1.9-0.7-2.8c-0.2-0.5-0.4-1-0.8-1.4C8.8,7.8,7.8,7.6,7.1,8.2
			C6.3,8.7,6,9.5,5.9,10.4c0,0.3,0,0.5,0,0.8c0,0.3-0.2,0.4-0.4,0.5c-0.3,0.1-0.7,0.1-1.1,0C4.2,11.6,4,11.5,4,11.2
			c-0.1-0.4-0.1-0.7,0-1.1c0.1-0.9,0.4-1.8,1-2.6c0.6-0.8,1.4-1.4,2.4-1.6C8.3,5.8,9.2,6,9.9,6.5c0.9,0.6,1.5,1.3,2,2.3
			c0.4,0.8,0.6,1.7,0.8,2.6c0.3,1.5,0.4,3,0.3,4.6c-0.1,1.6-0.4,3.1-0.9,4.6c-0.1,0.2-0.2,0.3-0.5,0.3c-0.5,0-1-0.2-1.3-0.5
			c-0.1-0.1-0.2-0.2-0.3-0.4C10,20,9.8,20.1,9.7,20.1c-0.7,0.3-1.4,0.4-2.1,0.5c-0.8,0.1-1.7,0-2.4-0.4c-1-0.5-1.5-1.3-1.4-2.4
			c0-0.6,0.2-1.1,0.6-1.6c0.5-0.8,1.3-1.4,2.2-1.8c1-0.5,2-0.8,3.1-0.8c0.4,0,0.8,0.1,1.3,0.1C10.8,13.8,10.9,13.8,11,13.8z
			 M7.3,18.6c1,0,2.1-0.4,3-1.2c0.2-0.2,0.3-0.4,0.5-0.6c0.2-0.3,0.1-0.6-0.2-0.8c-0.3-0.2-0.7-0.2-1-0.2c-1.2,0-2.2,0.4-3.1,1.2
			c-0.3,0.2-0.5,0.5-0.6,0.8c-0.1,0.3-0.1,0.5,0.3,0.7C6.5,18.5,6.8,18.5,7.3,18.6z"/>
		<path d="M36.6,13.5c0.1,0,0.1-0.1,0.2-0.1c1-0.5,1.9-1,3-1.2c0.9-0.2,1.9-0.3,2.8-0.2c0.4,0.1,0.8,0.1,1.2,0.3
			c0.6,0.3,1,0.9,1.2,1.5c0.3,0.9,0.2,1.9-0.2,2.8c-0.2,0.4-0.5,0.8-0.9,1.1c-1.2,1.1-2.7,1.7-4.2,2c-0.6,0.1-1.3,0.2-1.9,0.2
			c-0.1,0-0.1,0-0.2,0.1c-0.1,0.2-0.3,0.4-0.5,0.5c-0.2,0.1-0.4,0.2-0.5,0.3c-0.3,0.1-0.4,0-0.6-0.2c-0.5-0.8-0.7-1.7-0.9-2.6
			c-0.3-1.2-0.4-2.5-0.5-3.7c-0.1-1.3,0-2.6,0.1-3.8c0.1-1.5,0.4-3,0.8-4.4c0.1-0.2,0.2-0.3,0.4-0.4c0.5,0,0.8,0.2,1.2,0.4
			c0.1,0,0.1,0.1,0.2,0.1c0.2,0.2,0.2,0.4,0.1,0.6c-0.4,0.8-0.5,1.6-0.7,2.4c-0.2,1-0.2,2-0.2,3C36.5,12.7,36.5,13.1,36.6,13.5z
			 M41.7,14c-0.5,0.1-0.9,0.1-1.4,0.2c-1.1,0.2-2.1,0.7-2.9,1.4c-0.3,0.2-0.5,0.5-0.4,0.9c0,0.3,0.1,0.7,0.1,1
			c0.1,0.4,0.2,0.4,0.5,0.5c0.1,0,0.1,0,0.2,0c0.6,0,1.1-0.1,1.7-0.3c1-0.3,2-0.7,2.9-1.4c0.4-0.3,0.7-0.7,0.7-1.3
			c0.1-0.4-0.1-0.8-0.6-0.9C42.3,14,42,14,41.7,14z"/>
		<path d="M72.8,9.6c0-0.5-0.1-1-0.1-1.5c-0.1-0.6-0.3-1.1-0.5-1.7c0,0,0-0.1-0.1-0.1C72,6.1,72,5.9,72.2,5.8
			c0.4-0.3,0.7-0.5,1.2-0.6c0.1,0,0.2,0,0.3,0c0.1,0,0.2,0.1,0.2,0.2c0.3,0.6,0.4,1.1,0.6,1.7c0.4,1.7,0.5,3.4,0.4,5.1
			c-0.1,1.8-0.3,3.5-0.7,5.2c-0.1,0.6-0.3,1.2-0.5,1.7c0,0.1-0.1,0.2-0.2,0.3c-0.1,0.2-0.3,0.1-0.5,0.1c-0.4-0.1-0.7-0.2-1-0.4
			c-0.2-0.2-0.3-0.4-0.3-0.7c0.1-0.7,0.3-1.4,0.4-2.1c0,0,0,0,0,0c-0.1,0-0.1,0.1-0.2,0.1c-0.7,0.4-1.4,0.7-2.2,0.8
			c-1,0.2-2,0.3-2.9-0.1c-1.2-0.4-1.9-1.5-1.9-2.7c0-0.7,0.3-1.3,0.7-1.9c0.7-1,1.6-1.8,2.7-2.3c0.7-0.3,1.4-0.6,2.2-0.7
			c0.7-0.1,1.4-0.1,2.1,0.1C72.7,9.6,72.7,9.6,72.8,9.6z M68.3,15.3c0.4,0,0.8-0.1,1.2-0.2c1.1-0.3,2.1-0.9,2.8-1.8
			c0.2-0.3,0.4-0.6,0.4-1.1c0-0.2-0.1-0.4-0.3-0.6c-0.2-0.1-0.5-0.2-0.7-0.2c-1.3,0-2.5,0.4-3.5,1.3c-0.5,0.4-0.9,0.9-1.1,1.5
			c-0.1,0.4,0,0.7,0.4,0.9C67.7,15.3,68,15.3,68.3,15.3z"/>
		<path d="M53,16.9c-0.2,0.3-0.4,0.6-0.7,0.9c-0.5,0.7-1.1,1.2-1.9,1.6c-1.1,0.5-2.3,0.2-3.1-0.7c-0.5-0.7-0.8-1.4-0.9-2.2
			c-0.2-1-0.2-2.1-0.2-3.1c0.1-1.6,0.4-3.1,0.8-4.7c0.1-0.4,0.3-0.8,0.5-1.2C47.5,7.1,47.7,7,48,7c0.5,0,0.9,0.3,1.3,0.6
			c0.1,0.1,0.1,0.2,0.1,0.4c0,0.1,0,0.1-0.1,0.2c-0.4,1-0.7,2-0.8,3.1c-0.2,1.2-0.3,2.5-0.3,3.7c0,0.6,0.1,1.1,0.2,1.7
			c0.1,0.3,0.2,0.5,0.4,0.8c0.2,0.2,0.4,0.3,0.6,0.2c0.4-0.1,0.6-0.4,0.9-0.6c0.7-0.7,1.1-1.5,1.5-2.4c0.6-1.3,1-2.7,1.3-4.1
			c0.1-0.8,0.2-1.6,0.2-2.4c0-0.2,0.1-0.3,0.2-0.3c0.3-0.1,0.5-0.1,0.8-0.1c0.3,0,0.6,0,0.9,0c0.1,0,0.2,0.1,0.2,0.2
			c-0.1,1.1-0.2,2.1-0.4,3.2c-0.1,1.1-0.2,2.3-0.2,3.4c0,0.9,0.1,1.7,0.2,2.6c0.1,0.7,0.3,1.3,0.5,1.9c0,0.1,0,0.1,0.1,0.2
			c0.1,0.3,0,0.5-0.2,0.7c-0.3,0.3-0.7,0.5-1.1,0.6c-0.2,0.1-0.4,0-0.5-0.2c-0.4-0.7-0.6-1.5-0.8-2.3c-0.1-0.3-0.1-0.7-0.1-1
			C53,16.9,53,16.9,53,16.9z"/>
		<path d="M26.6,17.2c0,1.4,0,2.8,0,4.1c-0.6,0-1.2,0-1.8,0.1c0.1-2.1,0-4.2,0.2-6.3c0,0,0.1,0,0.1,0c0.6,0,1.2,0,1.7,0
			c0.1,0,0.2,0,0.3,0c0.2,0,0.4,0.1,0.6,0.3c0.6,0.8,1.3,1.7,2,2.5c0.3,0.3,0.6,0.6,1,0.9c0,0,0.1,0.1,0.1,0.1
			c0-0.4,0.1-0.8,0.1-1.1c0.1-1.7,0.2-3.4,0.3-5.1c0.1-1.2,0.1-2.4,0.2-3.7c0-0.1,0-0.1,0.1-0.2c0.3-0.1,0.6-0.2,0.9-0.2
			c0.3,0,0.5-0.1,0.8-0.1c0.2,0,0.3,0,0.3,0.3c-0.1,2.3-0.2,4.5-0.3,6.8c-0.1,1.7-0.1,3.4-0.2,5.1c0,0.1-0.1,0.2-0.2,0.3
			c-0.4,0.2-0.9,0.3-1.4,0.4c0,0-0.1,0-0.1,0c-0.3,0.1-0.5,0-0.8-0.2c-0.8-0.7-1.4-1.4-2.1-2.2C27.8,18.4,27.3,17.8,26.6,17.2
			C26.7,17.2,26.7,17.2,26.6,17.2z"/>
		<path d="M63.5,18.7c0.2,0,0.4,0,0.6,0c1.4,0,2.7,0,4.1,0c0.7,0,1.4,0,2,0c0.4,0,0.5,0.1,0.7,0.5c0.1,0.4,0.1,0.9-0.1,1.3
			c-0.1,0.2-0.2,0.3-0.4,0.3c-1.4,0-2.9,0-4.3,0c-1.3,0-2.6,0-3.9,0c-0.2,0-0.4,0-0.5-0.2c-0.1-0.1-0.1-0.3-0.1-0.4
			c-0.3-1.1-0.4-2.2-0.6-3.3c-0.2-1.4-0.2-2.7-0.2-4.1c0-1.6,0.2-3.2,0.5-4.7c0.1-0.5,0.3-1,0.5-1.4c0.1-0.3,0.4-0.4,0.7-0.3
			c0.5,0.1,0.9,0.4,1.1,0.8c0.1,0.2,0.1,0.3,0,0.5c-0.3,0.7-0.4,1.4-0.5,2.1c-0.3,2-0.3,4-0.2,6.1c0.1,1,0.2,1.9,0.4,2.8
			C63.5,18.6,63.5,18.6,63.5,18.7z"/>
		<path d="M17,18.7c0.2,0,0.4,0,0.6,0c1.6,0,3.1,0,4.7,0c0.2,0,0.3,0,0.5,0c0.3,0,0.5,0.1,0.6,0.4c0.1,0.5,0,1-0.2,1.5
			c-0.1,0.1-0.1,0.2-0.3,0.2c-0.3,0-0.6,0-0.8,0c-1.3,0-2.6,0-3.9,0c-0.6,0-1.3,0-1.9,0c-0.2,0-0.4,0-0.6,0c-0.2,0-0.3-0.1-0.4-0.3
			c-0.2-0.7-0.4-1.4-0.5-2.1c-0.1-0.9-0.3-1.8-0.4-2.7c-0.1-1.2-0.1-2.3-0.1-3.5c0-0.9,0.1-1.7,0.2-2.6c0.1-1,0.3-2,0.7-2.9
			c0-0.1,0.1-0.2,0.2-0.3c0.1-0.2,0.3-0.3,0.6-0.3c0.5,0.1,0.9,0.4,1.2,0.8c0.1,0.2,0.1,0.3,0,0.5c-0.3,0.6-0.4,1.4-0.5,2.1
			c-0.3,1.6-0.3,3.2-0.2,4.9c0,1.3,0.1,2.5,0.4,3.8C16.9,18.4,16.9,18.5,17,18.7C17,18.6,17,18.6,17,18.7z"/>
		<path d="M25.8,10.8c0.2,0.6,0.4,1.2,1,1.5c0.6,0.4,1.2,0.3,1.8-0.1c0.2-0.2,0.3-0.4,0.5-0.6c0.2-0.3,0.5-0.4,0.9-0.2
			c0.3,0.2,0.5,0.4,0.6,0.7c0.1,0.2,0.1,0.4-0.1,0.6c-0.5,0.7-1.2,1.2-2,1.5c-1.2,0.4-2.3,0.1-3.2-0.8c-0.8-0.8-1.2-1.8-1.3-2.9
			c-0.1-0.8,0-1.6,0.2-2.4c0.3-1,0.9-1.7,1.8-2.2c0.9-0.5,1.8-0.4,2.7,0.1c0.9,0.5,1.5,1.3,1.9,2.3c0.1,0.2,0.1,0.5,0.2,0.8
			c0.1,0.5-0.2,0.9-0.6,1.1c-0.6,0.3-1.2,0.5-1.8,0.6c-0.6,0.1-1.2,0.1-1.8,0.1C26.2,10.8,26,10.8,25.8,10.8z M28.8,8.8
			c-0.1-0.4-0.4-0.8-0.7-1c-0.5-0.4-1.2-0.4-1.6,0.1c-0.3,0.3-0.5,0.8-0.6,1.2C26.9,9.2,27.8,9.1,28.8,8.8z"/>
		<path d="M59.6,20.6c-0.6,0-1.2,0-1.8,0c-0.1,0-0.2-0.1-0.2-0.2c-0.2-0.8-0.2-1.6-0.2-2.4c0-1.2-0.1-2.3,0-3.5
			c0-0.9,0.1-1.8,0.1-2.8c0-0.2,0.1-0.4,0.1-0.6c0-0.2,0.2-0.3,0.3-0.3c0.6,0,1.2,0.1,1.6,0.5c0.1,0.1,0.2,0.2,0.1,0.4
			c-0.3,1.7-0.5,3.5-0.4,5.2C59.2,18.2,59.3,19.4,59.6,20.6C59.6,20.5,59.6,20.5,59.6,20.6z"/>
		<path d="M21.4,17.2c-0.6,0-1.2,0-1.7,0c-0.1,0-0.2-0.1-0.3-0.2c-0.1-0.4-0.2-0.8-0.2-1.2c-0.2-1.3-0.3-2.5-0.3-3.8
			c0-0.7,0-1.3,0-2c0-0.1,0.1-0.3,0.1-0.4c0-0.2,0.2-0.2,0.3-0.3c0.1,0,0.3,0,0.4,0c0.3,0.1,0.7,0.2,1,0.4c0.2,0.2,0.3,0.3,0.3,0.6
			c0,0.8-0.1,1.6-0.1,2.5C20.9,14.3,21.1,15.8,21.4,17.2C21.4,17.2,21.4,17.2,21.4,17.2z"/>
		<path d="M21.6,7.7c0,0.6-0.5,1.1-1.1,1.1c-0.6,0-1.2-0.5-1.2-1.1c0-0.6,0.5-1.2,1.2-1.2C21.1,6.5,21.6,7.1,21.6,7.7z"/>
		<path d="M57.8,8.8c0-0.6,0.5-1.2,1.1-1.2c0.6,0,1.1,0.5,1.2,1.1c0,0.7-0.4,1.2-1.1,1.2C58.4,9.9,57.8,9.4,57.8,8.8z"/>
	</g>
</g>
</svg>
